#!OML:ASF E:/inclinewalkrobotboard/Project1/Captureday1/Session1/subject1.ASF
:FULLY-SPECIFIED
:DEGREES
313
root 0 0 0 -9.750683110015949 -51.500020579403724 -0.40643767447070794
lowerback 2.7895046647761923 -1.3596194645699176 -0.3985562715420794
upperback -2.1217234106222524 -1.7646474900517948 0.5494251641975759
thorax -3.6463962749886605 -0.8748949120830809 1.0837761667516097
lowerneck -16.90498185771476 -2.1757379796208163 -7.9924081509006015
upperneck 0.3480637404760447 -2.762933119419466 8.236466926348427
head 3.31225392728029 -1.0825140798162052 3.6795850228759006
rclavicle -9.803898376677634E-15 -1.636143752068462E-16
rhumerus 1.9227180552602683 -12.64500602876854 -67.83145497607961
rradius 18.823897282872963
rwrist 57.58504438186375
rhand -7.423299705060748 21.78470207752778
rfingers 7.125019999999909
rthumb 18.472742337093425 -7.900788787965531
lclavicle -5.2141042260281E-15 4.97354069697861E-15
lhumerus -26.002288164058765 -2.575744081546876 81.00225814270009
lradius 37.220236283438595
lwrist -38.09351853957199
lhand -9.09443020969707 14.980719093352068
lfingers 7.029574546903426
lthumb 16.49166362999489 78.34451074877045
rfemur -9.589701685239968 4.871398172976678 30.14779092602045
rtibia 38.301958074290866
rfoot 1.2134304474559983 -2.303485031180987
rtoes 16.10726706490712
lfemur 12.161299515587645 -2.634324920908566 -30.790080784524633
ltibia 19.936382574468354
lfoot -18.62249365287807 -0.19652733153571766
ltoes -0.625409430567955
314
root 0 0 0 -9.639638482744429 -51.38647500039478 -0.49865588576821857
lowerback 2.576105052479784 -1.3617209724397838 -0.2970277047396621
upperback -2.1801683070275515 -1.749471341446422 0.5590785768532168
thorax -3.5923459056017104 -0.8668877923922709 1.0416442310124365
lowerneck -16.90246962572804 -2.135279625791305 -7.958857795816148
upperneck 0.378969957873176 -2.704241767498453 8.074261311782129
head 3.3214619641975673 -1.0556022330546249 3.6257254496694293
rclavicle -9.867283274617413E-15 -1.8653270815583613E-16
rhumerus 1.9354656648134196 -12.619741583946398 -67.80982611769325
rradius 18.956477187897946
rwrist 57.48493701204181
rhand -7.435036584974766 21.790267592664772
rfingers 7.125019999999909
rthumb 18.461340405217218 -7.89424828663816
lclavicle -5.4126053488984365E-15 4.877301659591588E-15
lhumerus -25.901154842929447 -2.355432797426694 80.81980529112944
lradius 36.97227669857381
lwrist -38.21123817756738
lhand -9.093491139838163 14.922539315647905
lfingers 7.028398837668441
lthumb 16.488882132682342 78.38196682049619
rfemur -8.691045734466538 5.698378069428118 31.493600711631736
rtibia 32.577674681132834
rfoot -1.705798737685873 -2.773692833152701
rtoes 16.149821619782344
lfemur 12.088198472853916 -2.6486039155553174 -30.723692819541505
ltibia 19.920674240222425
lfoot -18.52044051511561 -0.238713824477923
ltoes -0.7056163349759821
315
root 0 0 0 -9.55952940912613 -51.20774889978503 -0.5823843379509148
lowerback 2.366218956988102 -1.3607005948919455 -0.19868165137265148
upperback -2.235787438006137 -1.7302008082318943 0.5646070213150475
thorax -3.537101173909344 -0.856844533058283 0.996273743982848
lowerneck -16.893428572238534 -2.1020468242034935 -7.923273006138384
upperneck 0.3910965208005699 -2.6560617410885117 7.920081619155313
head 3.3249039478010376 -1.0334055284611532 3.573578511427494
rclavicle -9.928226036840384E-15 -2.0470621683645613E-16
rhumerus 1.9745746651799072 -12.59706400401185 -67.7843058756887
rradius 19.03025037530626
rwrist 57.43266948722075
rhand -7.444246118803749 21.79593861593925
rfingers 7.125019999999909
rthumb 18.452442829566284 -7.888630226039044
lclavicle -5.544765736722635E-15 4.872032493944751E-15
lhumerus -25.863112397661027 -2.0758140826147446 80.66859336525204
lradius 36.734456333713574
lwrist -38.35415338043778
lhand -9.132446032302616 14.848499122542378
lfingers 7.027410637497966
lthumb 16.44856320488814 78.22600571668254
rfemur -7.6161028198004885 6.357445808035257 32.464434602991645
rtibia 29.162171618458345
rfoot -4.5632741270788575 -3.3390386111656376
rtoes 15.99566756110252
lfemur 12.072890392634752 -2.668872150468996 -30.646282403706223
ltibia 19.79713452652572
lfoot -18.46213394752116 -0.28811715931619286
ltoes -0.9640738852381237
316
root 0 0 0 -9.523964828438233 -50.972951130682674 -0.653869802481112
lowerback 2.166752935798347 -1.3582560986385612 -0.11070355453785474
upperback -2.287266289164427 -1.7102219314075486 0.5644082649749756
thorax -3.4829744959816917 -0.8464813341752573 0.9498457791186272
lowerneck -16.875382830648277 -2.076982975914289 -7.886909172137488
upperneck 0.3817684765850764 -2.620287514305035 7.784854362406998
head 3.3210574015634764 -1.016836741935775 3.5267344703068835
rclavicle -9.981315302872615E-15 -2.1205179080414517E-16
rhumerus 2.054474100673571 -12.601477614927061 -67.74499438219154
rradius 19.041351649673473
rwrist 57.42717101572312
rhand -7.4527879192462585 21.800117266777253
rfingers 7.1250199999999095
rthumb 18.44418291125789 -7.885456338563532
lclavicle -5.641367268083128E-15 4.987057282010102E-15
lhumerus -25.887282735687698 -1.7487319390120746 80.55722564996734
lradius 36.530807454071244
lwrist -38.510849541489165
lhand -9.206145457761227 14.761642672269387
lfingers 7.026666381408973
lthumb 16.375670523383878 77.83871083977363
rfemur -6.46425103609201 6.85417306748114 33.191404400997996
rtibia 27.27513558365797
rfoot -7.178212480184782 -3.887113640690858
rtoes 15.64282100440663
lfemur 12.127734985540775 -2.694085345716198 -30.571578581047426
ltibia 19.565343109106394
lfoot -18.465006800230213 -0.3338005368439436
ltoes -1.3688624499233448
